<?xml version="1.0" standalone="no"?>
<!DOCTYPE svg PUBLIC "-//W3C//DTD SVG 20010904//EN"
 "http://www.w3.org/TR/2001/REC-SVG-20010904/DTD/svg10.dtd">
<svg version="1.0" xmlns="http://www.w3.org/2000/svg"
 width="3334.000000pt" height="3334.000000pt" viewBox="0 0 3334.000000 3334.000000"
 preserveAspectRatio="xMidYMid meet">
<metadata>
Created by potrace 1.11, written by Peter Selinger 2001-2013
</metadata>
<g transform="translate(0.000000,3334.000000) scale(0.100000,-0.100000)"
fill="#000000" stroke="none">
<path d="M16357 33334 c-1 -1 -96 -5 -212 -8 -115 -3 -246 -8 -290 -11 -44 -2
-125 -7 -180 -10 -94 -5 -140 -8 -290 -20 -33 -2 -96 -7 -140 -11 -44 -3 -91
-7 -105 -9 -14 -2 -63 -7 -110 -10 -47 -3 -92 -8 -100 -10 -8 -2 -49 -7 -90
-10 -41 -4 -86 -8 -100 -10 -32 -4 -116 -15 -155 -20 -76 -9 -142 -18 -159
-21 -10 -2 -44 -6 -75 -9 -31 -4 -63 -8 -71 -10 -8 -2 -35 -7 -60 -10 -25 -3
-70 -10 -100 -15 -30 -5 -73 -12 -95 -15 -22 -4 -53 -9 -70 -11 -16 -3 -41 -7
-55 -9 -48 -7 -221 -38 -285 -51 -11 -2 -45 -8 -75 -14 -30 -5 -66 -12 -80
-14 -14 -3 -70 -15 -125 -26 -55 -11 -109 -22 -120 -24 -11 -3 -40 -9 -65 -15
-25 -5 -56 -12 -70 -15 -67 -12 -403 -92 -498 -118 -40 -10 -81 -21 -91 -23
-32 -6 -253 -66 -376 -102 -66 -19 -127 -36 -135 -38 -40 -10 -431 -131 -555
-173 -548 -183 -958 -343 -1548 -601 -26 -11 -49 -21 -52 -21 -2 -1 -35 -16
-72 -34 -37 -18 -102 -48 -143 -66 -86 -39 -720 -357 -825 -415 -680 -371
-1385 -814 -1892 -1189 -23 -17 -73 -53 -110 -81 -37 -27 -74 -55 -83 -62 -8
-7 -54 -41 -101 -77 -48 -35 -95 -71 -105 -79 -11 -9 -84 -66 -163 -129 -239
-188 -497 -404 -691 -577 -107 -96 -139 -124 -168 -150 -47 -40 -434 -406
-526 -497 -214 -212 -597 -619 -807 -859 -30 -34 -213 -248 -274 -320 -127
-151 -420 -523 -541 -685 -96 -129 -206 -280 -226 -310 -10 -14 -30 -43 -46
-65 -89 -125 -150 -214 -296 -435 -167 -251 -206 -313 -360 -568 -97 -161
-306 -521 -306 -528 0 -2 -13 -25 -29 -51 -99 -164 -444 -853 -588 -1178 -46
-103 -66 -147 -101 -225 -11 -25 -37 -85 -57 -135 -20 -49 -43 -103 -50 -120
-46 -102 -215 -541 -300 -781 -131 -366 -280 -841 -365 -1159 -28 -105 -71
-266 -75 -285 -2 -8 -24 -96 -49 -195 -36 -146 -130 -569 -149 -675 -3 -14 -8
-36 -11 -50 -3 -14 -8 -38 -11 -55 -6 -33 -31 -173 -40 -217 -3 -16 -7 -40
-10 -55 -2 -16 -7 -39 -9 -53 -3 -14 -8 -47 -11 -74 -3 -27 -8 -52 -9 -55 -2
-3 -7 -28 -10 -56 -4 -27 -9 -63 -12 -80 -9 -55 -13 -80 -19 -125 -3 -25 -8
-56 -10 -70 -2 -14 -6 -45 -10 -70 -3 -25 -8 -56 -10 -70 -7 -42 -39 -300 -50
-415 -3 -27 -8 -70 -11 -95 -2 -25 -7 -70 -9 -100 -3 -30 -7 -70 -10 -90 -2
-19 -7 -71 -10 -115 -6 -88 -12 -166 -20 -264 -3 -35 -8 -111 -11 -170 -2 -58
-7 -135 -9 -171 -31 -472 -21 -1466 21 -1985 2 -27 6 -86 9 -130 6 -88 11
-147 21 -245 7 -74 10 -109 18 -200 3 -36 8 -74 10 -85 2 -11 7 -51 10 -90 4
-38 8 -81 10 -95 2 -14 7 -52 11 -85 4 -32 8 -66 10 -75 1 -8 6 -40 9 -71 4
-31 8 -66 10 -76 3 -11 7 -44 11 -74 3 -30 8 -61 10 -69 2 -8 7 -35 10 -60 6
-47 33 -220 39 -255 2 -11 7 -36 10 -55 11 -63 15 -84 25 -140 6 -30 13 -71
16 -90 3 -19 12 -66 20 -105 8 -38 16 -81 18 -95 3 -14 13 -61 22 -105 9 -44
19 -93 22 -110 2 -16 15 -75 28 -130 28 -120 44 -193 49 -220 2 -11 38 -153
80 -315 42 -162 78 -303 81 -314 2 -10 13 -48 24 -85 29 -95 82 -274 85 -286
13 -54 188 -599 206 -640 5 -11 27 -74 50 -140 286 -815 713 -1753 1162 -2554
21 -36 213 -367 228 -391 223 -362 301 -485 434 -685 164 -246 391 -568 542
-767 47 -62 95 -126 107 -142 32 -44 411 -517 439 -547 13 -15 41 -48 63 -75
384 -466 1059 -1162 1575 -1624 63 -57 131 -117 150 -134 178 -158 554 -471
680 -566 18 -14 48 -38 68 -55 19 -16 45 -37 57 -45 12 -8 109 -81 216 -161
159 -120 364 -268 439 -319 8 -6 58 -40 110 -77 52 -36 181 -122 285 -191 105
-68 202 -132 217 -143 15 -10 29 -19 32 -19 2 0 31 -17 63 -38 132 -88 513
-313 726 -430 31 -18 83 -46 115 -64 31 -17 72 -40 91 -50 115 -65 753 -388
765 -388 3 0 66 -29 141 -65 75 -36 137 -65 139 -65 3 0 37 -15 78 -34 40 -19
118 -53 173 -76 55 -23 118 -51 140 -61 78 -35 502 -203 673 -265 53 -19 104
-38 112 -41 8 -4 17 -7 20 -8 3 -1 12 -4 20 -8 25 -10 276 -96 435 -148 166
-55 530 -167 670 -205 104 -29 423 -114 445 -119 8 -2 90 -22 183 -44 92 -23
220 -52 285 -66 64 -15 155 -34 202 -45 47 -10 101 -21 120 -24 43 -7 70 -13
135 -26 92 -19 192 -37 248 -46 15 -2 39 -6 55 -9 15 -3 43 -8 62 -10 19 -3
46 -8 60 -11 33 -8 46 -10 175 -29 205 -31 230 -34 274 -40 23 -3 55 -7 70 -9
14 -3 49 -7 76 -11 28 -3 66 -8 85 -10 67 -9 205 -24 265 -30 33 -3 74 -8 90
-10 17 -3 62 -7 100 -10 39 -3 88 -8 110 -10 22 -2 76 -7 120 -10 44 -3 105
-8 135 -10 427 -32 664 -40 1240 -40 439 0 751 6 950 20 30 2 102 6 160 10 58
3 121 8 140 10 19 1 76 6 126 9 49 4 101 8 115 11 13 2 61 6 107 10 46 3 98 7
115 10 33 5 102 12 192 20 28 3 64 7 80 10 17 2 53 7 80 10 28 3 64 8 80 10
17 2 53 7 80 10 28 3 60 8 73 11 12 2 44 7 70 10 26 3 58 7 72 9 14 2 45 7 70
10 25 3 68 10 95 15 28 6 68 12 90 15 22 2 65 9 95 15 30 6 71 13 90 16 19 3
58 9 86 15 28 5 64 12 80 14 16 3 40 8 54 11 14 3 36 7 50 9 14 2 45 8 70 14
25 5 61 13 80 16 19 3 55 11 80 16 25 6 56 12 70 15 242 40 973 228 1435 369
486 148 1254 426 1553 561 29 13 55 24 57 24 6 0 393 171 510 225 65 30 782
385 805 399 14 9 93 52 175 97 83 45 168 92 190 104 22 13 63 35 90 50 28 16
73 43 102 62 28 18 54 33 56 33 18 0 782 478 852 532 6 5 87 61 180 124 228
156 466 330 720 525 116 89 212 165 215 168 3 3 50 42 105 86 85 67 468 389
501 420 6 5 51 46 99 90 188 169 225 203 376 346 262 248 564 555 789 799 63
69 119 130 125 136 5 6 35 39 65 74 30 35 64 73 75 84 11 12 45 50 75 86 30
36 57 67 61 70 3 3 52 61 109 130 57 69 106 127 109 130 4 3 22 25 41 50 19
25 37 47 40 50 13 11 271 342 341 435 40 55 79 107 86 115 127 159 723 1031
723 1059 0 6 3 11 8 11 4 0 12 9 17 20 6 11 67 113 137 227 159 262 256 431
379 660 23 43 59 107 79 143 144 259 444 888 615 1290 31 74 63 149 70 165 81
179 312 805 424 1145 63 192 176 559 186 601 2 9 13 49 24 90 36 124 40 140
72 258 30 115 114 454 123 501 3 14 14 66 26 115 54 236 177 875 194 1015 3
25 8 54 10 66 2 12 7 45 11 75 3 30 8 61 10 69 2 8 7 40 10 70 4 30 8 57 10
60 1 3 6 36 10 73 3 37 8 76 9 85 8 40 24 169 32 247 6 65 11 117 18 183 6 49
10 90 21 207 9 101 21 258 30 400 3 50 8 119 10 155 15 218 19 438 19 945 1
612 -4 762 -39 1245 -2 25 -6 86 -10 135 -3 50 -8 101 -10 115 -2 14 -6 65
-10 114 -4 50 -9 98 -11 109 -1 10 -6 48 -9 85 -3 37 -8 81 -10 97 -2 17 -9
73 -15 125 -6 52 -13 106 -15 120 -2 14 -6 45 -10 70 -8 65 -26 191 -30 220
-3 14 -9 59 -15 100 -20 133 -66 413 -74 445 -3 11 -12 61 -21 110 -31 173
-87 441 -132 635 -24 107 -46 202 -48 210 -2 8 -17 70 -35 137 -17 67 -33 130
-35 141 -20 105 -216 766 -317 1067 -144 432 -369 1021 -508 1330 -10 22 -54
121 -98 220 -107 241 -171 375 -312 655 -143 284 -183 363 -190 370 -3 3 -12
19 -20 35 -8 17 -36 68 -62 114 -27 46 -48 86 -48 88 0 3 -17 35 -39 71 -21
37 -48 83 -59 102 -186 328 -403 677 -640 1030 -80 118 -152 225 -161 236 -9
12 -23 32 -31 44 -22 33 -311 430 -326 449 -7 9 -77 99 -155 200 -78 102 -150
194 -160 205 -9 12 -95 116 -191 231 -148 178 -364 429 -418 485 -8 9 -60 65
-115 125 -201 220 -608 634 -811 825 -445 421 -860 775 -1335 1140 -53 41
-107 82 -119 90 -12 8 -28 20 -34 25 -6 6 -27 22 -46 35 -19 13 -37 27 -40 30
-16 20 -447 320 -686 479 -276 182 -332 218 -524 336 -52 32 -106 65 -120 74
-14 9 -34 21 -45 27 -11 6 -36 20 -55 31 -190 111 -356 206 -405 233 -33 18
-94 51 -135 73 -269 147 -723 373 -985 492 -27 13 -81 37 -120 55 -248 114
-799 338 -1135 460 -740 270 -1601 510 -2395 669 -137 27 -263 52 -280 55 -16
3 -70 12 -120 21 -49 9 -106 18 -125 21 -19 2 -44 7 -56 9 -12 3 -52 9 -90 15
-38 5 -80 12 -94 14 -14 3 -61 10 -105 16 -44 6 -91 13 -105 16 -14 2 -49 6
-78 10 -29 3 -62 7 -72 9 -10 2 -46 6 -79 10 -33 3 -70 8 -83 10 -13 3 -52 7
-88 10 -36 3 -76 8 -90 10 -56 9 -264 29 -410 40 -30 2 -84 7 -120 10 -81 7
-174 13 -310 20 -58 3 -139 8 -181 10 -215 13 -1112 28 -1122 19z m-253 -7348
c77 -4 150 -9 161 -11 11 -2 67 -7 125 -10 58 -4 114 -8 125 -10 11 -2 47 -7
80 -10 64 -7 273 -33 315 -40 394 -66 568 -101 855 -175 732 -188 1443 -481
2105 -868 1647 -962 2914 -2459 3596 -4247 146 -384 288 -875 368 -1275 27
-131 80 -443 90 -520 36 -295 51 -436 61 -605 2 -49 7 -132 10 -183 7 -104 7
-651 1 -727 -2 -27 -7 -106 -11 -175 -3 -69 -8 -132 -10 -140 -2 -8 -6 -57
-10 -108 -3 -51 -8 -101 -9 -110 -2 -9 -7 -44 -10 -77 -12 -101 -16 -134 -46
-330 -34 -216 -31 -202 -71 -394 -274 -1325 -883 -2590 -1745 -3621 -260 -311
-555 -619 -832 -868 -541 -487 -1138 -899 -1777 -1227 -838 -430 -1698 -702
-2635 -835 -193 -27 -242 -33 -375 -45 -135 -12 -165 -15 -250 -20 -49 -3
-128 -8 -175 -11 -106 -7 -631 -7 -736 0 -44 3 -122 8 -174 11 -100 6 -284 22
-360 31 -49 6 -182 22 -245 30 -97 12 -353 56 -495 84 -929 186 -1817 530
-2640 1023 -505 302 -1002 679 -1433 1087 -1178 1115 -1999 2527 -2377 4085
-84 348 -158 763 -186 1050 -3 39 -8 77 -9 85 -2 9 -6 60 -10 115 -4 55 -9
111 -11 125 -22 168 -21 1004 1 1195 1 17 6 66 9 110 86 1090 425 2237 952
3217 394 733 866 1368 1459 1963 902 905 2023 1602 3222 2004 525 176 1099
309 1578 366 28 3 61 8 75 10 14 2 57 7 95 10 39 4 77 8 85 10 8 2 60 7 115
11 55 3 111 8 125 10 14 1 108 6 210 10 102 4 186 7 187 8 5 4 508 -3 627 -8z"/>
</g>
</svg>
